<svg width="13" height="9" viewBox="0 0 13 9" fill="none" xmlns="http://www.w3.org/2000/svg">
<path d="M12.3 1.60564C12.2626 1.71768 12.244 1.84838 12.188 1.94175C12.0946 2.1098 11.9826 2.29653 11.8518 2.44591C9.8352 4.48123 7.79988 6.51654 5.76456 8.55186C5.16704 9.14939 4.32677 9.13071 3.72924 8.55186C2.72092 7.56221 1.73127 6.55389 0.741622 5.56424C0.349497 5.15344 0.200116 4.68663 0.368169 4.12645C0.536223 3.58494 0.928349 3.24883 1.48853 3.15547C1.918 3.08078 2.3288 3.21149 2.64623 3.51025C3.00101 3.84636 3.33712 4.18246 3.67323 4.51857C3.93464 4.77999 4.19606 5.04141 4.45748 5.30282C4.66288 5.50822 4.8496 5.50822 5.055 5.30282C6.66085 3.69698 8.2667 2.09113 9.87254 0.466609C10.1153 0.223864 10.3954 0.0744832 10.7315 0.0184652C11.4597 -0.074898 12.1506 0.410591 12.2813 1.13882C12.2813 1.1575 12.3 1.19484 12.3 1.21351C12.3 1.3629 12.3 1.4936 12.3 1.60564Z" fill="white"/>
</svg>
