<svg width="11" height="11" viewBox="0 0 11 11" fill="none" xmlns="http://www.w3.org/2000/svg">
<rect x="0.220093" y="0.5" width="10" height="10" rx="5" fill="#052C54"/>
<path d="M5.23055 4.25504C5.63251 3.85308 5.97263 3.51296 6.31276 3.17284C6.82809 2.67811 7.34343 2.61627 7.70417 3.03885C8.15766 3.55418 7.96183 4.01799 7.51864 4.44056C7.17852 4.76007 6.86932 5.08989 6.45705 5.50216C6.8384 5.88351 7.20944 6.25455 7.58049 6.62559C8.00306 7.04817 8.13705 7.51197 7.68355 7.96547C7.24036 8.40866 6.76625 8.28498 6.34368 7.8624C5.98294 7.50166 5.63251 7.15124 5.22024 6.73897C4.85951 7.0997 4.54 7.41921 4.21018 7.74903C3.65362 8.30559 3.1692 8.37774 2.75693 7.98608C2.33436 7.58412 2.41681 7.06878 3.00429 6.4813C3.3135 6.1721 3.61239 5.8732 3.98343 5.50216C3.58147 5.10019 3.20012 4.73946 2.83939 4.35811C2.3962 3.89431 2.37558 3.35836 2.77755 3.01823C3.24135 2.61627 3.68454 2.70903 4.07619 3.10069C4.43693 3.46142 4.79767 3.82216 5.23055 4.25504Z" fill="white"/>
</svg>
